<svg width="40" height="59" xmlns="http://www.w3.org/2000/svg" xmlns:xlink="http://www.w3.org/1999/xlink"><defs><path id="a" d="M2.93 5.887L2.57 3.381.065 3.022l2.506-.358L2.93.157l.358 2.507 2.507.358-2.507.359-.358 2.506"/><path d="M.934 1.89a.888.888 0 1 1 0-1.775.888.888 0 0 1 0 1.775" id="c"/><path d="M.172 13.965c0-.128 0-.255.003-.383L.18 12.3c.01-.426.034-.85.05-1.271.023-.842.099-1.667.162-2.466.065-.798.167-1.568.251-2.296C.754 5.54.84 4.852.96 4.221c.432-2.53.938-4.18.938-4.18s-.506 1.65-.938 4.18C.84 4.85.754 5.539.643 6.267.56 6.995.457 7.765.392 8.563.329 9.362.253 10.187.23 11.03c-.016.42-.04.845-.05 1.27l-.005 1.283-.003.348v.035" id="e"/></defs><g fill="none" fill-rule="evenodd"><g transform="translate(-3 16)"><mask id="b" fill="#fff"><use xlink:href="#a"/></mask><path mask="url(#b)" d="M2.93 5.887L2.57 3.381.065 3.022l2.506-.358L2.93.157l.358 2.507 2.507.358-2.507.359-.358 2.506"/></g><g transform="translate(28 -1)"><mask id="d" fill="#fff"><use xlink:href="#c"/></mask><path d="M.934 1.89a.888.888 0 1 1 0-1.775.888.888 0 0 1 0 1.775" mask="url(#d)"/></g><path fill="#21A3C6" d="M10 29l-9 7.008V45l9-4.266V29M30 29l9 7.008V45l-9-4.266V29"/><path fill="#27E2EB" d="M9 35l-9 7.01V51l9-4.267V35M31 35l9 7.01V51l-9-4.267V35"/><path d="M29.764 16.321a53.96 53.96 0 0 0-2.258-5.326 49.902 49.902 0 0 0-2.501-4.5 41.872 41.872 0 0 0-2.407-3.471l-.526-.683-.498-.601a23.34 23.34 0 0 0-.823-.95c-.224-.258-.43-.455-.555-.588L20 0l-.08 51.141c3.757.141 7.017.162 10.841.377.397-1.264.486-2.08.794-3.41.477-2.063.85-4.193 1.088-6.358.244-2.165.36-4.365.357-6.565-.008-4.398-.507-8.796-1.48-12.92a53.313 53.313 0 0 0-1.756-5.944z" fill="#AC2B1F"/><path d="M10.236 16.321a53.96 53.96 0 0 1 2.258-5.326 49.902 49.902 0 0 1 2.501-4.5 41.872 41.872 0 0 1 2.407-3.471l.526-.683.498-.601c.304-.374.59-.692.823-.95.224-.258.43-.455.555-.588L20 0l.08 51.141c-3.757.141-7.017.162-10.841.377-.397-1.264-.486-2.08-.794-3.41a54.855 54.855 0 0 1-1.088-6.358A58.064 58.064 0 0 1 7 35.185c.008-4.398.507-8.796 1.48-12.92a53.313 53.313 0 0 1 1.756-5.944z" fill="#FF5650"/><path d="M20.74 34s.07.098.182.28c.116.184.265.452.44.794.346.684.75 1.66 1.064 2.832.159.586.3 1.221.405 1.893.11.671.18 1.38.168 2.112-.01.732-.121 1.489-.249 2.258-.129.769-.256 1.55-.331 2.33-.151 1.563-.316 3.126-.502 4.592l-.282 2.111-.267 1.892c-.08.586-.172 1.123-.244 1.6-.071.475-.139.89-.198 1.232L20.74 59h-.48l-.186-1.074c-.06-.342-.126-.757-.199-1.233-.071-.476-.162-1.013-.243-1.599l-.267-1.892-.282-2.111c-.186-1.466-.351-3.029-.501-4.59a34.693 34.693 0 0 0-.332-2.332c-.128-.769-.238-1.526-.249-2.258-.012-.732.059-1.44.167-2.112.106-.672.247-1.307.406-1.893a15.087 15.087 0 0 1 1.062-2.832c.177-.342.326-.61.441-.794.113-.182.183-.28.183-.28h.48" fill="#21A3C6"/><path d="M20 31c-3.886-.317-6.966-3.519-7-7.437-.034-3.96 3.058-7.242 7-7.563v15" fill="#944D47"/><path d="M20.614 31c-.206 0-.411-.009-.614-.026V16.026c.182-.016.366-.024.552-.026h.064c4.042 0 7.35 3.322 7.384 7.436.035 4.136-3.25 7.53-7.322 7.564h-.064" fill="#68433D"/><path d="M20.436 14c-4.135.035-7.471 3.428-7.436 7.563.036 4.137 3.43 7.472 7.565 7.437 4.135-.035 7.47-3.427 7.435-7.564-.035-4.136-3.428-7.47-7.564-7.436" fill="#0C5664"/><path d="M20.454 16A5.506 5.506 0 0 0 15 21.546 5.506 5.506 0 0 0 20.547 27 5.505 5.505 0 0 0 26 21.452 5.505 5.505 0 0 0 20.454 16" fill="#3ED7FF"/><path d="M18 26.556c.719.29 1.514.45 2.35.444 3.142-.025 5.678-2.372 5.65-5.237A4.842 4.842 0 0 0 25.09 19l-.31.225c-2.477 1.835-5.592 4.37-6.781 7.331" fill="#75C5E1"/><path d="M23 9a3 3 0 1 1-6 0 3 3 0 0 1 6 0" fill="#0C5664"/><path d="M22 9.5a1.5 1.5 0 1 1-3 0 1.5 1.5 0 0 1 3 0" fill="#00A2CD"/><g transform="translate(9 23)"><mask id="f" fill="#fff"><use xlink:href="#e"/></mask><path d="M.172 13.965c0-.128 0-.255.003-.383L.18 12.3c.01-.426.034-.85.05-1.271.023-.842.099-1.667.162-2.466.065-.798.167-1.568.251-2.296C.754 5.54.84 4.852.96 4.221c.432-2.53.938-4.18.938-4.18s-.506 1.65-.938 4.18C.84 4.85.754 5.539.643 6.267.56 6.995.457 7.765.392 8.563.329 9.362.253 10.187.23 11.03c-.016.42-.04.845-.05 1.27l-.005 1.283-.003.348v.035" mask="url(#f)"/></g></g></svg>