<svg width="420" height="419" xmlns="http://www.w3.org/2000/svg" xmlns:xlink="http://www.w3.org/1999/xlink"><defs><radialGradient cx="42.17%" cy="39.875%" fx="42.17%" fy="39.875%" r="48.167%" gradientTransform="matrix(-.80768 .58962 -.57793 -.79166 .993 .466)" id="b"><stop stop-color="#36A6F3" offset="0%"/><stop stop-color="#1D619F" offset="100%"/></radialGradient><path d="M346.109 209.25c0 75.17-60.939 136.109-136.11 136.109-75.17 0-136.108-60.939-136.108-136.109 0-75.171 60.938-136.109 136.108-136.109 75.171 0 136.11 60.938 136.11 136.109" id="a"/><radialGradient cx="38.755%" cy="28.8%" fx="38.755%" fy="28.8%" r="86.92%" gradientTransform="matrix(0 .93385 -1 0 .676 -.074)" id="c"><stop stop-color="#B4EC51" offset="0%"/><stop stop-color="#429321" offset="100%"/></radialGradient></defs><g fill="none" fill-rule="evenodd"><path d="M419.109 209.25c0 115.486-93.623 209.109-209.11 209.109C94.511 418.359.89 324.736.89 209.25.891 93.762 94.512.141 209.998.141 325.486.141 419.11 93.762 419.11 209.25" fill="#FFF" opacity=".05"/><path d="M394.109 209.25c0 101.68-82.43 184.109-184.11 184.109S25.89 310.929 25.89 209.25c0-101.68 82.428-184.109 184.108-184.109s184.11 82.428 184.11 184.109" fill="#FFF" opacity=".05"/><path d="M368.109 209.25c0 87.32-70.789 158.109-158.11 158.109-87.32 0-158.108-70.789-158.108-158.109 0-87.321 70.788-158.109 158.108-158.109 87.321 0 158.11 70.788 158.11 158.109" fill="#FFF" opacity=".05"/><mask id="d" fill="#fff"><use xlink:href="#a"/></mask><use fill="url(#b)" xlink:href="#a"/><path d="M161.23 309.18c-1.192 2.853-2.466 5.893-5.912 6.289-8.257.947-10.411-10.593-11.718-16.338-1.149-5.05-2.222-10.191-4.552-14.858-1.425-2.854-3.226-5.902-3.945-9.043-1.616-7.054 2.254-14.557.163-21.345-2.196-7.129-9.728-10.3-12.553-16.955-2.691-6.343-2.853-13.125-2.245-19.908.343-3.825 1.021-7.866.628-11.709-.442-4.337-2.8-5.502-5.172-8.6-3.935-5.137-3.153-12.942-5.202-18.936-2.316-6.774-8.851-10.75-11.075-17.495-1.146-3.48-.053-7.172-.992-10.512-.826-2.939-2.643-4.41-5.181-5.959-5.19-3.166-11.304-6.986-12.723-13.434-1.289-5.858.438-10.968 1.925-16.598 3.43-12.992 10.298-22.034 22.762-27.314 7.837-3.321 15.996-5.425 23.948-8.375 8.032-2.979 15.824-6.529 23.787-9.681 6.774-2.681 12.67-5.021 19.76-2.066 2.356.982 4.811 2.324 7.35 2.759.856.147 1.618 0 2.351-.245.873-.766 2.052-1.259 3.55-1.27.232-.003.467-.004.701-.006 3.61-.027 5.404 2.771 5.385 5.569.001.168-.005.336-.017.502 1.163 1.979 1.678 4.064 2.165 6.825.631 3.582 2.521 5.856.858 9.344-1.203 2.524-4.93 2.008-6.828.835-2.693-1.664-3.878-1.879-7.032-1.748-1.842.075-3.391-.072-5.138-.616-2.9-.905-5.268-3.076-7.977-.001-1.753 1.987-3.066 4.343-3.88 6.869-1.189 3.684-2.687 8.496 2.802 6.477 5.832-2.143 14.178-5.085 20.42-3.323 3.224.91 6.255 2.924 6.939 6.438.481 2.471 1.158 6.422-.9 8.446-4.651 4.569-13.395 3.909-19.367 5.109-5.484 1.101-7.354 3.695-9.758 8.618-1.645 3.367-3.994 5.981-7.919 6.406-2.939.316-6.539-.258-8.615 2.371-1.232 1.56-2.174 3.375-3.107 5.123-1.845 3.461-3.625 6.966-6.595 9.609-1.671 1.487-3.604 1.307-5.289 0-2.49-1.931-3.762-4.725-6.02-6.839-1.959-1.832-4.018-2.242-6.613-1.897-1.801.24-3.494.731-2.394 2.746 3.397 6.218.419 13.572 4.685 19.18 2.172 2.857 4.595 6.017 5.495 9.569.227.898 1.682 8.297 2.271 8.145 7.064-1.821 11.092-3.601 17.209 1.602 1.704 1.448 1.959 3.267 1.363 4.849a11.478 11.478 0 0 1 2.213 3.447c.705 1.715 1.325 4.578 2.854 5.786 1.136.896 3.935-.445 5.251-.46 4.674-.054 8.869 1.378 12.825 3.844 4.687 2.921 8.76 7.315 13.675 9.742 8.048 3.974 18.382 6.67 22.716 15.393 3.415 6.873.042 19.246-6.219 23.528-2.792 1.909-4.994 3.054-6.023 6.522-.685 2.309-1.457 4.417-2.796 6.431-2.304 3.466-5.238 4.042-9.115 4.545-6.709.871-9.614 7.969-11.846 13.58-2.103 5.285-3.811 10.71-5.841 16.022-1.684 4.403-3.678 8.667-5.492 13.011zm188.031-128.044c.677 7.799.795 15.758-.34 23.52-1.087 7.424-3.068 15.373-5.648 22.447-1.061 2.908-2.258 5.642-4.006 8.206-1.915 2.809-4.915 4.439-7.032 7.027-2.732 3.343-2.258 9.831-3.25 13.975-.94 3.933-1.934 7.859-3.085 11.739-1.9 6.406-4.354 12.165-8.521 17.416-2.849 3.589-5.297 8.187-9.543 10.328-4.063 2.048-8.838-.018-10.831-3.908-2.235-4.363-1.149-9.785-.528-14.399.904-6.72-1.551-13.505-.713-20.266.526-4.241 1.725-8.328 2.32-12.544.571-4.065-.456-6.904-2.039-10.507-3.026-6.895 1.573-12.32 1.004-19.132-.367-4.384-1.062-14.522-7.929-11.946-6.158 2.31-13.606 3.534-20.097 1.896-5.204-1.314-12.198-2.44-14.307-8.016-.93-2.458.25-6.544.762-8.939.873-4.073 2.811-9.201 1.66-13.365-1.985-7.18-1.113-10.812 4.83-15.368 2.246-1.721 2.753-5.829 4.128-8.23 1.069-1.863 2.289-3.476 3.967-4.831 4.26-3.439 12.948-5.219 18.257-4.689 5.259.524 9.079 4.103 14.045 5.619 1.54.471 8.225 2.829 9.239.564 1.082-2.412-2.023-5.563-3.581-7.009-1.666-1.549-4.648-4.539-7.238-3.617-2.64.942-5.033 1.705-7.848 1.879-3.313.206-5.736-2.51-8.818-3.028-3.246-.547-5.893 1.178-8.737 2.44-3.54 1.571-8.776 2.593-11.901-.485-5.516-5.433-1.804-16.538 5.872-17.68 2.472-.368 5.033-.281 7.481-.743.809-.152 1.846-.271 2.641-.656l-.152-.069-1.095-.406c-1.733-.643-3.919-1.796-4.761-3.571-1.074-2.274-1.112-6.022-2.561-7.922-2.93-3.849-9.288-2.749-12.732-6.25-2.932-2.98-4.594-8.151-2.688-12.128 1.95-4.068 6.893-4.504 10.789-3.163 1.95.671 4.785 2.219 6.893 1.965 3.279-.396 6.104-1.611 9.38-1.502a5.631 5.631 0 0 1 1.582-.824c5.017-1.701 12.712 2.423 17.279 4.408 8.083 3.513 14.49 8.894 20.528 15.198 6.512 6.799 11.859 13.953 14.326 23.174 2.577 9.63 5.563 19.1 7.393 28.92 1.545 8.29 4.871 16.011 5.605 24.472zM203.948 97.848c-3.977-2.329-2.261-6.074-1.274-9.539 1.022-3.588-1.885-6.39.623-9.316l.007-.021c2.588-6.037 14.59-4.182 19.408-2.956 2.898.736 7.353 2.198 8.249 5.454 1.032 3.75-3.356 4.88-6.056 5.189-3.276.374-3.95 3.275-5.891 5.473-1.423 1.611-2.913 3.144-4.735 4.316-2.978 1.92-6.956 3.378-10.331 1.4zm54.12 224.138c8.825 3.325 3.412 15.467-1.767 19.578-6.841 5.432-15.679 8.138-24.298 9.118-6.332.717-12.695.659-18.997 1.667-5.713.911-11.577 1.507-17.362.99-5.756-.514-11.118-2.037-16.758-3.102-4.553-.858-8.46-3.416-12.916-4.168-2.12-.357-3.064-2.122-3.043-3.94-2.987-3.054-5.051-7.683-5.361-11.392-.133-1.59 1.379-2.717 2.803-2.803 8.961-.54 8.354-14.076 17.503-14.076 4.187 0 4.637 4.847 7.794 6.414 1.748.867 3.597.804 5.468.741 2.053-.069 4.133-.138 6.133 1.021 11.698 6.78 21.793-.37 33.814-.852 2.748-.111 5.502.16 8.252.432 3.055.301 6.107.603 9.143.38 3.2-.235 6.475-1.183 9.592-.008z" fill="url(#c)" mask="url(#d)"/><path d="M344.218 179.109c0 80.693-65.416 146.109-146.11 146.109C117.415 325.218 52 259.802 52 179.109 52 98.415 117.415 33 198.108 33c80.694 0 146.11 65.415 146.11 146.109" fill="#2876DD" opacity=".2" mask="url(#d)"/><path d="M315.218 161.109c0 75.17-60.939 136.109-136.11 136.109C103.938 297.218 43 236.279 43 161.109 43 85.938 103.938 25 179.108 25c75.171 0 136.11 60.938 136.11 136.109" fill="#B8F4FC" opacity=".1" mask="url(#d)"/><path d="M288.218 107.109c0 75.17-60.939 136.109-136.11 136.109C76.938 243.218 16 182.279 16 107.109 16 31.938 76.938-29 152.108-29c75.171 0 136.11 60.938 136.11 136.109" fill="#B8F4FC" opacity=".1" mask="url(#d)"/><path d="M254.218 65.109c0 75.17-60.939 136.109-136.11 136.109C42.938 201.218-18 140.279-18 65.109-18-10.062 42.938-71 118.108-71c75.171 0 136.11 60.938 136.11 136.109" fill="#68DFFF" opacity=".1" mask="url(#d)"/></g></svg>